<?xml version="1.0" encoding="UTF-8"?><svg version="1.1" viewBox="-.559 .229 118.52 118.53" xml:space="preserve" xmlns="http://www.w3.org/2000/svg"><path d="m15.808 5.4014c-6.1756 0-11.196 5.0201-11.196 11.202v85.812c0 6.161 5.0201 11.174 11.196 11.174h85.812c6.161 0 11.174-5.0128 11.174-11.174v-85.813c0-6.182-5.0128-11.202-11.174-11.202h-85.811z" fill="#008033" stroke-width=".91274"/><g transform="matrix(1.4924 0 0 1.4924 21.394 22.186)" fill="#fff"><path d="m12 0c-6.5625 0-9 2.168-9 8v33c0 1.3594 0.39844 2.3398 1 3.0625v2.9375c0 1.6523 1.3477 3 3 3h4c1.6523 0 3-1.3477 3-3v-1h22v1c0 1.6523 1.3477 3 3 3h4c1.6523 0 3-1.3477 3-3v-2.9375c0.60156-0.72266 1-1.7031 1-3.0625v-32c0-4.3555-0.53906-9-7-9zm3 4h21c0.55469 0 1 0.44922 1 1v2c0 0.55078-0.44531 1-1 1h-21c-0.55078 0-1-0.44922-1-1v-2c0-0.55078 0.44922-1 1-1zm-4 7h28c2 0 3 1 3 3v12c0 2-1.9531 2.9375-3 2.9375l-28 0.0625c-2 0-3-1-3-3v-12c0-2 1-3 3-3zm-9 1c-1.1016 0-2 0.89844-2 2v8c0 1.1016 0.89844 2 2 2zm46 0v12c1.1055 0 2-0.89844 2-2v-8c0-1.1016-0.89453-2-2-2zm-36.5 22c1.9336 0 3.5 1.5664 3.5 3.5s-1.5664 3.5-3.5 3.5-3.5-1.5664-3.5-3.5 1.5664-3.5 3.5-3.5zm27 0c1.9336 0 3.5 1.5664 3.5 3.5s-1.5664 3.5-3.5 3.5-3.5-1.5664-3.5-3.5 1.5664-3.5 3.5-3.5z" fill="#fff"/></g></svg>