<?xml version="1.0" encoding="UTF-8" standalone="no"?>
<svg
   xml:space="preserve"
   viewBox="-.559 .229 118.524 118.532"
   version="1.1"
   id="svg2"
   sodipodi:docname="launcher_icon.svg"
   inkscape:version="1.4.3 (0d15f75, 2025-12-25)"
   xmlns:inkscape="http://www.inkscape.org/namespaces/inkscape"
   xmlns:sodipodi="http://sodipodi.sourceforge.net/DTD/sodipodi-0.dtd"
   xmlns="http://www.w3.org/2000/svg"
   xmlns:svg="http://www.w3.org/2000/svg"><defs
   id="defs2" /><sodipodi:namedview
   id="namedview2"
   pagecolor="#ffffff"
   bordercolor="#000000"
   borderopacity="0.25"
   inkscape:showpageshadow="2"
   inkscape:pageopacity="0.0"
   inkscape:pagecheckerboard="0"
   inkscape:deskcolor="#d1d1d1"
   inkscape:zoom="4.3322562"
   inkscape:cx="60.245745"
   inkscape:cy="63.361904"
   inkscape:window-width="1920"
   inkscape:window-height="1111"
   inkscape:window-x="-9"
   inkscape:window-y="-9"
   inkscape:window-maximized="1"
   inkscape:current-layer="svg2" />
  
  
<g
   style="fill:#008033;fill-opacity:1"
   id="g6"
   transform="matrix(2.37048,0,0,2.37048,-0.55900008,0.23299792)"><path
     d="M 12,0 C 5.4375,0 3,2.167969 3,8 v 33 c 0,1.359375 0.398438,2.339844 1,3.0625 V 47 c 0,1.652344 1.347656,3 3,3 h 4 c 1.652344,0 3,-1.347656 3,-3 v -1 h 22 v 1 c 0,1.652344 1.347656,3 3,3 h 4 c 1.652344,0 3,-1.347656 3,-3 V 44.0625 C 46.601563,43.339844 47,42.359375 47,41 V 9 C 47,4.644531 46.460938,0 40,0 Z m 3,4 h 21 c 0.554688,0 1,0.449219 1,1 v 2 c 0,0.550781 -0.445312,1 -1,1 H 15 C 14.449219,8 14,7.550781 14,7 V 5 c 0,-0.550781 0.449219,-1 1,-1 z m -4,7 h 28 c 2,0 3,1 3,3 v 12 c 0,2 -1.953125,2.9375 -3,2.9375 L 11,29 C 9,29 8,28 8,26 V 14 c 0,-2 1,-3 3,-3 z m -9,1 c -1.101562,0 -2,0.898438 -2,2 v 8 c 0,1.101563 0.898438,2 2,2 z m 46,0 v 12 c 1.105469,0 2,-0.898437 2,-2 v -8 c 0,-1.101562 -0.894531,-2 -2,-2 z M 11.5,34 C 13.433594,34 15,35.566406 15,37.5 15,39.433594 13.433594,41 11.5,41 9.566406,41 8,39.433594 8,37.5 8,35.566406 9.566406,34 11.5,34 Z m 27,0 C 40.433594,34 42,35.566406 42,37.5 42,39.433594 40.433594,41 38.5,41 36.566406,41 35,39.433594 35,37.5 35,35.566406 36.566406,34 38.5,34 Z"
     id="path1-4"
     style="fill:#008033;fill-opacity:1" /></g></svg>
