<svg xmlns="http://www.w3.org/2000/svg" xml:space="preserve" viewBox="-.559 .229 118.524 118.532">
  <path fill="#008033" d="M11.707.23C4.941.23-.559 5.73-.559 12.503v94.016c0 6.75 5.5 12.242 12.266 12.242h94.016c6.75 0 12.242-5.492 12.242-12.242V12.502c0-6.773-5.492-12.273-12.242-12.273H11.708Z"/>
  <path fill="#fff" d="M85.598 58.186H31.886c-1.562 0-2.86-1.29-2.86-2.852 0-.273.056-.516.103-.758l2.852-21.22c.25-1.32 1.422-2.343 2.812-2.343H82.69c1.39 0 2.562 1.023 2.805 2.344l2.859 21.219c.047.242.102.484.102.758 0 1.563-1.297 2.852-2.86 2.852m-2.15 23.109a5.47 5.47 0 0 1-5.483-5.484c0-3.016 2.453-5.453 5.484-5.453 3 0 5.453 2.438 5.453 5.453 0 3.046-2.453 5.484-5.453 5.484m-49.484 0a5.467 5.467 0 0 1-5.461-5.484 5.46 5.46 0 0 1 5.46-5.453c3.024 0 5.478 2.438 5.478 5.453a5.47 5.47 0 0 1-5.477 5.484m8.485-59.891h32.516c3.195 0 3.195 6.055 0 6.055H42.449c-3.203 0-3.203-6.055 0-6.055m48.719 7.047c-.984-4.844-4.078-6.79-8.742-8.727-4.664-1.945-15.578-4.266-23.711-4.266-8.148 0-19.062 2.32-23.727 4.266-4.664 1.938-7.766 3.883-8.742 8.727l-3.492 26.906v37.055h6.03v5.812c0 7.078 10.376 7.078 10.376 0v-5.812h39.118v5.812c0 7.078 10.344 7.078 10.344 0v-5.812h6.03v-37.06l-3.484-26.905z"/>
</svg>
